<svg xmlns="http://www.w3.org/2000/svg" version="1.1" xmlns:xlink="http://www.w3.org/1999/xlink" xmlns:svgjs="http://svgjs.dev/svgjs" width="2000" height="1285" viewBox="0 0 2000 1285"><g transform="matrix(1,0,0,1,-36.081738144950464,-467.80387634647514)"><svg viewBox="0 0 403 259" data-background-color="#ebe3d6" preserveAspectRatio="xMidYMid meet" height="1285" width="2000" xmlns="http://www.w3.org/2000/svg" xmlns:xlink="http://www.w3.org/1999/xlink"><g id="tight-bounds" transform="matrix(1,0,0,1,7.48349337509012,94.28887468773313)"><svg viewBox="0 0 395.52 164.8571242282524" height="164.8571242282524" width="395.52"><g><svg viewBox="0 0 596.0397961567768 248.43599999999995" height="164.8571242282524" width="395.52"><g><rect width="10.388347004204375" height="248.43599999999995" x="230.11183101390242" y="0" fill="#ff9d21" opacity="1" stroke-width="0" stroke="transparent" fill-opacity="1" class="rect-qz-0" data-fill-palette-color="primary" rx="1%" id="qz-0" data-palette-color="#ff9d21"></rect></g><g transform="matrix(1,0,0,1,267.6948036835633,0.6179999999999808)"><svg viewBox="0 0 328.3449924732135 247.2" height="247.2" width="328.3449924732135"><g id="textblocktransform"><svg viewBox="0 0 328.3449924732135 247.2" height="247.2" width="328.3449924732135" id="textblock"><g><svg viewBox="0 0 328.3449924732135 247.2" height="247.2" width="328.3449924732135"><g transform="matrix(1,0,0,1,0,0)"><svg width="328.3449924732135" viewBox="62.28 -39.839999999999996 117.18000000000004 85.63" height="247.2" data-palette-color="#ff9d21"><svg></svg><svg></svg><g class="wordmark-text-0" data-fill-palette-color="primary" id="text-0"><path transform="translate(70.86,0)" d="M16.36-34.99v0c-0.02 0.393-0.053 0.88-0.1 1.46-0.047 0.573-0.1 1.183-0.16 1.83-0.053 0.64-0.117 1.29-0.19 1.95-0.073 0.66-0.14 1.267-0.2 1.82-0.053 0.553-0.097 1.03-0.13 1.43-0.033 0.4-0.05 0.657-0.05 0.77v0c-0.067 1.007-0.137 1.943-0.21 2.81-0.073 0.86-0.15 1.713-0.23 2.56-0.08 0.847-0.167 1.72-0.26 2.62-0.087 0.907-0.18 1.903-0.28 2.99-0.1 1.093-0.21 2.307-0.33 3.64-0.12 1.333-0.247 2.863-0.38 4.59v0l10.11-1.02c0.453-0.053 0.827-0.08 1.12-0.08v0c0.36 0 0.583 0.057 0.67 0.17 0.093 0.113 0.14 0.293 0.14 0.54v0c0 0.033-0.01 0.08-0.03 0.14-0.013 0.053-0.05 0.16-0.11 0.32-0.053 0.167-0.133 0.403-0.24 0.71-0.107 0.313-0.25 0.747-0.43 1.3v0l-0.53 1.61c-0.18 0.52-0.347 0.987-0.5 1.4-0.16 0.413-0.353 0.773-0.58 1.08-0.227 0.3-0.51 0.54-0.85 0.72-0.347 0.173-0.787 0.287-1.32 0.34v0c-0.34 0.033-0.803 0.06-1.39 0.08-0.587 0.027-1.263 0.053-2.03 0.08-0.767 0.02-1.593 0.047-2.48 0.08-0.887 0.033-1.793 0.073-2.72 0.12v0c-0.913 0.033-1.833 0.057-2.76 0.07-0.927 0.007-1.803 0.017-2.63 0.03-0.833 0.02-1.6 0.037-2.3 0.05-0.7 0.02-1.277 0.037-1.73 0.05v0c-0.427 0-0.733-0.033-0.92-0.1-0.187-0.067-0.28-0.173-0.28-0.32v0c0-0.173 0.057-0.427 0.17-0.76 0.113-0.34 0.26-0.717 0.44-1.13 0.18-0.413 0.38-0.843 0.6-1.29 0.22-0.447 0.437-0.883 0.65-1.31v0l0.66-8.71c0.127-1.487 0.257-2.993 0.39-4.52 0.127-1.533 0.24-3.013 0.34-4.44v0l0.41-6.47c0.1-1.533 0.167-2.647 0.2-3.34 0.033-0.687 0.05-1.063 0.05-1.13v0c0.033-0.293 0.057-0.537 0.07-0.73 0.013-0.2 0.043-0.363 0.09-0.49 0.04-0.133 0.1-0.23 0.18-0.29 0.08-0.067 0.203-0.117 0.37-0.15v0l8.56-2.03c0.18-0.067 0.4-0.1 0.66-0.1v0c0.18 0 0.307 0.053 0.38 0.16 0.073 0.107 0.11 0.307 0.11 0.6v0c0 0.033-0.003 0.08-0.01 0.14-0.007 0.053-0.01 0.103-0.01 0.15zM28.52-10.35v0c0.207-2.233 0.417-4.44 0.63-6.62 0.213-2.18 0.4-4.417 0.56-6.71v0c0.033-0.54 0.087-0.91 0.16-1.11 0.073-0.207 0.257-0.343 0.55-0.41v0c1.387-0.273 2.837-0.56 4.35-0.86 1.513-0.3 2.977-0.687 4.39-1.16v0c0.047-0.02 0.12-0.03 0.22-0.03v0c0.18 0 0.27 0.067 0.27 0.2v0l-2.2 23.78c-0.047 0.533-0.103 0.903-0.17 1.11-0.067 0.2-0.247 0.333-0.54 0.4v0c-1.38 0.427-2.78 0.9-4.2 1.42-1.413 0.52-2.91 1.05-4.49 1.59v0c-0.047 0.013-0.12 0.02-0.22 0.02v0c-0.18 0-0.27-0.08-0.27-0.24v0c0-0.02 0.017-0.24 0.05-0.66 0.033-0.427 0.08-0.973 0.14-1.64 0.053-0.667 0.113-1.417 0.18-2.25 0.067-0.827 0.137-1.657 0.21-2.49 0.073-0.827 0.14-1.623 0.2-2.39 0.067-0.767 0.127-1.417 0.18-1.95zM30.35-29.83v0c0.047-0.7 0.083-1.24 0.11-1.62 0.02-0.373 0.04-0.653 0.06-0.84 0.013-0.187 0.02-0.303 0.02-0.35 0-0.047 0.003-0.083 0.01-0.11 0.013-0.027 0.023-0.077 0.03-0.15 0.007-0.073 0.02-0.227 0.04-0.46 0.013-0.24 0.037-0.587 0.07-1.04 0.033-0.453 0.08-1.08 0.14-1.88v0c0.033-0.533 0.087-0.903 0.16-1.11 0.073-0.207 0.257-0.34 0.55-0.4v0c1.387-0.28 2.837-0.57 4.35-0.87 1.513-0.3 2.977-0.687 4.39-1.16v0c0.053-0.013 0.127-0.02 0.22-0.02v0c0.053 0.093 0.12 0.157 0.2 0.19v0l0.07 0.05-0.54 6.69c-0.047 0.54-0.107 0.913-0.18 1.12-0.073 0.213-0.247 0.343-0.52 0.39v0c-1.387 0.26-2.787 0.547-4.2 0.86-1.42 0.307-2.92 0.617-4.5 0.93v0c-0.047 0.013-0.117 0.02-0.21 0.02v0c-0.18 0-0.27-0.08-0.27-0.24zM60.77-27v0c0.06-0.167 0.18-0.25 0.36-0.25v0c0.033 0 0.067 0.007 0.1 0.02 0.033 0.007 0.067 0.01 0.1 0.01v0c1.22 0.473 2.473 0.86 3.76 1.16 1.287 0.3 2.563 0.587 3.83 0.86v0c0.307 0.067 0.46 0.247 0.46 0.54v0c0 0.213-0.097 0.54-0.29 0.98v0l-10.06 21.39c-0.127 0.287-0.24 0.52-0.34 0.7-0.1 0.18-0.197 0.327-0.29 0.44-0.1 0.113-0.207 0.197-0.32 0.25-0.113 0.047-0.25 0.087-0.41 0.12v0c-1.24 0.24-2.493 0.52-3.76 0.84-1.273 0.32-2.593 0.717-3.96 1.19v0c-0.033 0-0.057 0.003-0.07 0.01-0.02 0.007-0.037 0.01-0.05 0.01v0h-0.17c-0.08 0-0.147-0.03-0.2-0.09-0.047-0.053-0.077-0.103-0.09-0.15v0c-0.247-0.7-0.53-1.603-0.85-2.71-0.313-1.107-0.657-2.347-1.03-3.72-0.38-1.367-0.773-2.823-1.18-4.37-0.407-1.54-0.82-3.11-1.24-4.71-0.427-1.593-0.847-3.177-1.26-4.75-0.413-1.567-0.817-3.05-1.21-4.45v0c-0.147-0.507-0.22-0.867-0.22-1.08v0c0-0.227 0.13-0.373 0.39-0.44v0c1.273-0.273 2.593-0.56 3.96-0.86 1.367-0.3 2.66-0.687 3.88-1.16v0c0.047-0.02 0.12-0.03 0.22-0.03v0c0.213 0 0.327 0.083 0.34 0.25v0l3.22 16.4c0.087-0.193 0.227-0.547 0.42-1.06 0.193-0.513 0.43-1.127 0.71-1.84 0.273-0.72 0.577-1.51 0.91-2.37 0.333-0.86 0.677-1.74 1.03-2.64 0.347-0.893 0.693-1.783 1.04-2.67 0.34-0.887 0.66-1.713 0.96-2.48 0.3-0.76 0.563-1.433 0.79-2.02 0.233-0.587 0.407-1.027 0.52-1.32zM84.42-27.25v0c1.547 0 2.953 0.29 4.22 0.87 1.26 0.58 2.34 1.33 3.24 2.25 0.907 0.92 1.603 1.95 2.09 3.09 0.487 1.133 0.73 2.27 0.73 3.41v0c0 1.013-0.31 2.027-0.93 3.04-0.613 1.02-1.48 1.937-2.6 2.75-1.113 0.813-2.45 1.473-4.01 1.98-1.567 0.5-3.283 0.75-5.15 0.75v0c-0.98 0-2.007-0.097-3.08-0.29v0c0.067 0.7 0.27 1.303 0.61 1.81 0.34 0.5 0.77 0.913 1.29 1.24 0.527 0.327 1.117 0.567 1.77 0.72 0.66 0.153 1.34 0.23 2.04 0.23v0c0.787 0 1.54-0.067 2.26-0.2 0.727-0.14 1.423-0.323 2.09-0.55 0.667-0.227 1.31-0.48 1.93-0.76 0.62-0.273 1.207-0.55 1.76-0.83v0c0.147-0.033 0.27-0.06 0.37-0.08 0.107-0.027 0.21-0.04 0.31-0.04v0c0 0-0.003 0.13-0.01 0.39-0.013 0.26-0.02 0.627-0.02 1.1 0 0.473-0.003 1.043-0.01 1.71-0.007 0.667-0.017 1.407-0.03 2.22v0c0.047 0.08 0.077 0.16 0.09 0.24 0.02 0.08 0.03 0.147 0.03 0.2v0c0 0.193-0.18 0.403-0.54 0.63-0.36 0.227-0.827 0.463-1.4 0.71-0.58 0.247-1.24 0.483-1.98 0.71-0.74 0.227-1.493 0.433-2.26 0.62-0.767 0.187-1.507 0.333-2.22 0.44-0.713 0.107-1.34 0.16-1.88 0.16v0c-1.76 0-3.463-0.307-5.11-0.92-1.653-0.607-3.12-1.48-4.4-2.62-1.28-1.14-2.3-2.523-3.06-4.15-0.767-1.627-1.15-3.457-1.15-5.49v0c0-2.133 0.367-4.133 1.1-6 0.733-1.86 1.763-3.483 3.09-4.87 1.327-1.38 2.907-2.47 4.74-3.27 1.84-0.8 3.867-1.2 6.08-1.2zM84.13-20.75v0c-0.667 0-1.28 0.143-1.84 0.43-0.56 0.28-1.073 0.687-1.54 1.22-0.467 0.527-0.87 1.16-1.21 1.9-0.34 0.74-0.617 1.557-0.83 2.45v0c1.68-0.293 3.073-0.6 4.18-0.92 1.107-0.327 1.993-0.657 2.66-0.99 0.667-0.333 1.137-0.667 1.41-1 0.28-0.333 0.42-0.657 0.42-0.97v0c0-0.293-0.11-0.57-0.33-0.83-0.22-0.26-0.493-0.487-0.82-0.68-0.327-0.193-0.68-0.343-1.06-0.45-0.387-0.107-0.733-0.16-1.04-0.16z" fill="#ff9d21" fill-rule="nonzero" stroke="none" stroke-width="1" stroke-linecap="butt" stroke-linejoin="miter" stroke-miterlimit="10" stroke-dasharray="" stroke-dashoffset="0" font-family="none" font-weight="none" font-size="none" text-anchor="none" style="mix-blend-mode: normal" data-fill-palette-color="primary" opacity="1"></path><path transform="translate(58.59,44.11)" d="M24.19-14.43v-18.28c0.133-0.54 0.25-0.933 0.35-1.18 0.093-0.24 0.303-0.403 0.63-0.49v0l6.32-1.48c0.2-0.067 0.413-0.1 0.64-0.1v0c0.213 0 0.367 0.073 0.46 0.22 0.1 0.147 0.15 0.423 0.15 0.83v0c-0.1 0.387-0.18 0.983-0.24 1.79-0.067 0.807-0.117 1.69-0.15 2.65-0.033 0.96-0.057 1.923-0.07 2.89-0.02 0.973-0.03 1.817-0.03 2.53v0 1.34c0 1.013-0.007 2.113-0.02 3.3-0.02 1.187-0.04 2.39-0.06 3.61-0.027 1.22-0.057 2.427-0.09 3.62-0.033 1.187-0.067 2.3-0.1 3.34v0l-0.14 4.18c-0.02 0.08-0.03 0.153-0.03 0.22 0 0.06 0 0.123 0 0.19v0 0.37c0 0.273 0.003 0.503 0.01 0.69 0.013 0.187 0.02 0.353 0.02 0.5v0c0 0.167-0.013 0.313-0.04 0.44-0.027 0.133-0.087 0.26-0.18 0.38-0.1 0.12-0.237 0.247-0.41 0.38-0.167 0.133-0.397 0.297-0.69 0.49v0c-0.167 0.113-0.437 0.28-0.81 0.5-0.373 0.22-0.787 0.467-1.24 0.74-0.46 0.28-0.933 0.567-1.42 0.86-0.487 0.293-0.933 0.557-1.34 0.79-0.407 0.24-0.737 0.43-0.99 0.57-0.253 0.147-0.38 0.22-0.38 0.22v0l-11.33-17.43-1.02 14.29c-0.02 0.127-0.05 0.263-0.09 0.41-0.04 0.147-0.15 0.26-0.33 0.34v0c-0.147 0.067-0.397 0.17-0.75 0.31-0.36 0.133-0.78 0.29-1.26 0.47-0.48 0.18-0.987 0.363-1.52 0.55-0.527 0.187-1.027 0.36-1.5 0.52-0.473 0.153-0.89 0.277-1.25 0.37-0.367 0.1-0.617 0.15-0.75 0.15v0c-0.247 0-0.45-0.067-0.61-0.2-0.16-0.127-0.24-0.36-0.24-0.7v0c0.16-2.033 0.347-4.253 0.56-6.66 0.213-2.4 0.417-4.86 0.61-7.38 0.193-2.527 0.377-5.047 0.55-7.56 0.167-2.513 0.307-4.9 0.42-7.16v0c0-0.067-0.1-0.283-0.3-0.65-0.207-0.367-0.433-0.767-0.68-1.2-0.253-0.427-0.483-0.833-0.69-1.22-0.2-0.38-0.3-0.62-0.3-0.72v0c0-0.113 0.06-0.217 0.18-0.31 0.12-0.1 0.32-0.233 0.6-0.4v0l6.52-3.68c0.047 0 0.113-0.01 0.2-0.03 0.093-0.013 0.173-0.02 0.24-0.02v0c0.18 0 0.32 0.02 0.42 0.06 0.107 0.04 0.217 0.167 0.33 0.38v0zM49.63 1.27v0c-2.293 0-4.307-0.373-6.04-1.12-1.733-0.753-3.187-1.75-4.36-2.99-1.167-1.247-2.043-2.68-2.63-4.3-0.587-1.62-0.88-3.3-0.88-5.04v0c0-1.74 0.283-3.397 0.85-4.97 0.573-1.573 1.37-2.98 2.39-4.22 1.027-1.247 2.257-2.29 3.69-3.13 1.433-0.84 3.013-1.407 4.74-1.7v0c0.26-0.013 0.39-0.07 0.39-0.17v0c0-0.18-0.02-0.347-0.06-0.5-0.04-0.153-0.06-0.287-0.06-0.4v0c0-0.18 0.03-0.303 0.09-0.37 0.067-0.06 0.14-0.09 0.22-0.09v0c3.113 0 5.76 0.353 7.94 1.06 2.18 0.707 3.953 1.67 5.32 2.89 1.367 1.22 2.36 2.66 2.98 4.32 0.62 1.66 0.93 3.443 0.93 5.35v0c0 2.427-0.407 4.59-1.22 6.49-0.813 1.907-1.927 3.52-3.34 4.84-1.407 1.313-3.05 2.317-4.93 3.01-1.88 0.693-3.887 1.04-6.02 1.04zM45.12-12.45v0c0 0.88 0.093 1.75 0.28 2.61 0.187 0.867 0.497 1.647 0.93 2.34 0.427 0.7 0.99 1.267 1.69 1.7 0.7 0.433 1.57 0.65 2.61 0.65v0c0.753-0.033 1.41-0.2 1.97-0.5 0.56-0.3 1.043-0.69 1.45-1.17 0.407-0.48 0.747-1.023 1.02-1.63 0.267-0.6 0.477-1.22 0.63-1.86 0.153-0.647 0.263-1.28 0.33-1.9 0.067-0.613 0.1-1.173 0.1-1.68v0c0-0.847-0.127-1.677-0.38-2.49-0.253-0.813-0.623-1.53-1.11-2.15-0.487-0.62-1.093-1.12-1.82-1.5-0.727-0.387-1.56-0.58-2.5-0.58v0c-0.98 0-1.803 0.29-2.47 0.87-0.667 0.58-1.2 1.293-1.6 2.14-0.4 0.847-0.687 1.737-0.86 2.67-0.18 0.933-0.27 1.76-0.27 2.48zM78.91-10.11l3.83-14.74c0.047-0.18 0.183-0.297 0.41-0.35v0c1.32-0.287 2.673-0.587 4.06-0.9 1.38-0.307 2.707-0.69 3.98-1.15v0c0.227 0 0.34 0.083 0.34 0.25v0l2.49 16.65 4.66-16.65c0.067-0.167 0.19-0.25 0.37-0.25v0c0.047 0 0.08 0.007 0.1 0.02 0.013 0.007 0.043 0.01 0.09 0.01v0c1.22 0.473 2.473 0.86 3.76 1.16 1.287 0.3 2.567 0.587 3.84 0.86v0c0.307 0.067 0.46 0.247 0.46 0.54v0c0 0.213-0.097 0.54-0.29 0.98v0l-7.86 21.78c-0.133 0.273-0.25 0.503-0.35 0.69-0.093 0.187-0.19 0.333-0.29 0.44-0.1 0.107-0.207 0.19-0.32 0.25-0.113 0.053-0.25 0.097-0.41 0.13v0c-1.24 0.26-2.493 0.543-3.76 0.85-1.273 0.313-2.593 0.707-3.96 1.18v0c-0.033 0-0.057 0.003-0.07 0.01-0.013 0.007-0.03 0.01-0.05 0.01v0h-0.17c-0.08 0-0.143-0.03-0.19-0.09-0.053-0.053-0.087-0.103-0.1-0.15v0c-0.18-0.7-0.383-1.573-0.61-2.62-0.227-1.04-0.473-2.193-0.74-3.46-0.26-1.273-0.537-2.633-0.83-4.08-0.287-1.447-0.587-2.937-0.9-4.47v0l-3.1 10.92c-0.08 0.287-0.167 0.527-0.26 0.72-0.087 0.187-0.187 0.33-0.3 0.43-0.113 0.107-0.237 0.187-0.37 0.24-0.127 0.047-0.273 0.087-0.44 0.12v0c-1.233 0.24-2.487 0.52-3.76 0.84-1.267 0.32-2.583 0.717-3.95 1.19v0c-0.033 0-0.057 0.003-0.07 0.01-0.02 0.007-0.037 0.01-0.05 0.01v0h-0.17c-0.087 0-0.157-0.03-0.21-0.09-0.06-0.053-0.09-0.103-0.09-0.15v0c-0.227-0.72-0.487-1.63-0.78-2.73-0.293-1.093-0.607-2.32-0.94-3.68-0.333-1.36-0.68-2.813-1.04-4.36-0.353-1.547-0.717-3.117-1.09-4.71-0.38-1.6-0.753-3.183-1.12-4.75-0.36-1.573-0.713-3.067-1.06-4.48v0c-0.113-0.26-0.177-0.477-0.19-0.65-0.02-0.167-0.03-0.31-0.03-0.43v0c0-0.227 0.13-0.373 0.39-0.44v0c1.273-0.273 2.593-0.56 3.96-0.86 1.367-0.3 2.66-0.687 3.88-1.16v0c0.047-0.02 0.12-0.03 0.22-0.03v0c0.213 0 0.327 0.083 0.34 0.25v0zM118.95-28.56v0c-0.527 2.533-1.037 5.067-1.53 7.6-0.5 2.533-0.96 5.093-1.38 7.68v0c-0.033 0.533-0.087 0.907-0.16 1.12-0.073 0.213-0.257 0.343-0.55 0.39v0c-0.633 0.113-1.26 0.237-1.88 0.37-0.62 0.127-1.27 0.28-1.95 0.46v0c-0.133 0-0.21-0.02-0.23-0.06-0.027-0.04-0.04-0.1-0.04-0.18v0l-0.24-24.12c0.033-0.52 0.09-0.887 0.17-1.1 0.08-0.213 0.257-0.353 0.53-0.42v0c1.387-0.307 2.787-0.66 4.2-1.06 1.42-0.4 2.92-0.803 4.5-1.21v0c0.047-0.013 0.12-0.02 0.22-0.02v0c0.173 0 0.26 0.08 0.26 0.24v0c0 0.02-0.03 0.22-0.09 0.6-0.067 0.38-0.153 0.873-0.26 1.48-0.107 0.6-0.223 1.28-0.35 2.04-0.133 0.753-0.273 1.51-0.42 2.27-0.147 0.753-0.29 1.477-0.43 2.17-0.133 0.693-0.257 1.277-0.37 1.75zM118.09-8.35v0c-0.047 0.7-0.083 1.237-0.11 1.61-0.027 0.373-0.047 0.653-0.06 0.84-0.013 0.187-0.02 0.307-0.02 0.36 0 0.047-0.007 0.083-0.02 0.11-0.007 0.02-0.013 0.067-0.02 0.14-0.007 0.073-0.02 0.23-0.04 0.47-0.013 0.233-0.037 0.58-0.07 1.04-0.033 0.453-0.083 1.08-0.15 1.88v0c-0.033 0.533-0.087 0.903-0.16 1.11-0.073 0.2-0.257 0.333-0.55 0.4v0c-1.38 0.273-2.827 0.563-4.34 0.87-1.513 0.3-2.98 0.687-4.4 1.16v0c-0.047 0.013-0.12 0.02-0.22 0.02v0l-0.22-0.2c-0.027-0.027-0.04-0.04-0.04-0.04v0l0.53-6.69c0.033-0.52 0.087-0.887 0.16-1.1 0.073-0.213 0.257-0.353 0.55-0.42v0c1.387-0.24 2.787-0.517 4.2-0.83 1.413-0.307 2.91-0.623 4.49-0.95v0c0.053-0.013 0.127-0.02 0.22-0.02v0c0.18 0 0.27 0.08 0.27 0.24z" fill="#505050" fill-rule="nonzero" stroke="none" stroke-width="1" stroke-linecap="butt" stroke-linejoin="miter" stroke-miterlimit="10" stroke-dasharray="" stroke-dashoffset="0" font-family="none" font-weight="none" font-size="none" text-anchor="none" style="mix-blend-mode: normal" data-fill-palette-color="secondary" opacity="1"></path></g></svg></g></svg></g></svg></g></svg></g><g transform="matrix(1,0,0,1,0,24.06646032417825)"><svg viewBox="0 0 202.91720534844595 200.30307935164345" height="200.30307935164345" width="202.91720534844595"><g><svg xmlns="http://www.w3.org/2000/svg" viewBox="5.001844272445446 9.651312792235224 496.74815572755455 490.3486872077648" x="0" y="0" height="200.30307935164345" width="202.91720534844595" class="icon-icon-0" data-fill-palette-color="accent" id="icon-0"><g fill="#535353" data-fill-palette-color="accent"><path d="M89 180H44a5 5 0 0 1-5-5c0-17.15-13.87-27.9-14-28a5 5 0 0 1-1.76-5.48l30-96A60.48 60.48 0 0 1 64.08 25.87c10.6-12.61 24.7-17.33 40.78-13.65 10.68 2.44 19.53 10 24.28 20.64A39.27 39.27 0 0 1 128 67.79c-6.44 11.52-15.9 19.55-26.64 22.61-1.47 0.45-6.34 2.32-5.16 6.94 2.53 9.88 8.24 43.26 8.49 44.68a5 5 0 0 1-1.49 4.47c-0.35 0.34-9.15 9.19-9.15 28.51A5 5 0 0 1 89 180Zm-40-5h0Zm-0.29-5H84.18c1.1-15.33 7.07-24.71 10.2-28.64-1.37-7.9-5.86-33.51-7.92-41.54-2.72-10.63 5.75-17.21 12.1-19 11-3.14 17.68-12.54 20.66-17.87a29.23 29.23 0 0 0 0.78-26c-3.46-7.77-9.79-13.22-17.37-15C73 15.19 63.2 47.06 62.79 48.42l-29 93C38.29 145.67 47 155.61 48.71 170Z" fill="#535353" data-fill-palette-color="accent"></path><path d="M88.69 500H44a5 5 0 0 1-5-5V175a5 5 0 0 1 10 0V490H83.69V175a5 5 0 0 1 10 0V495A5 5 0 0 1 88.69 500Z" fill="#535353" data-fill-palette-color="accent"></path><path d="M212.69 500h-45a5 5 0 0 1-5-5V240a5 5 0 0 1 10 0V490h35V240a5 5 0 0 1 10 0V495A5 5 0 0 1 212.69 500Z" fill="#535353" data-fill-palette-color="accent"></path><path d="M212.88 245h-46a5 5 0 0 1-5-5c0-14.42-21.48-18.13-21.7-18.17a5 5 0 0 1-4-6.31L171.65 92.31a5 5 0 0 1 5.52-3.57c31.21 4.53 40.57-10.59 41-11.24a4.94 4.94 0 0 1 5.42-2.41 5 5 0 0 1 3.89 4.53L238 216.51a5 5 0 0 1-3.56 5.18c-13.92 4.14-16.52 18.51-16.62 19.12A5 5 0 0 1 212.88 245Zm-41.52-10H209c1.91-5.87 6.85-16.34 18.71-21.49L218.3 91.16c-7.06 5-19.09 9.89-38.22 8L147.24 213.3a51.56 51.56 0 0 1 9 3.67C164.66 221.41 169.8 227.58 171.36 235Z" fill="#535353" data-fill-palette-color="accent"></path><path d="M480.12 498.79h-1.4c-6.22 0-11.31-2-15.12-5.8-6.35-6.42-6.44-15.53-6.43-16.55V283c0-0.15 0-0.3 0-0.44L466.85 173a35.66 35.66 0 0 1-8.75-22.94c0-16.12 10.71-26.1 20.62-26.1h1.37c5.31 0 10.58 2.74 14.47 7.52a29.4 29.4 0 0 1 6.13 18.58A35.56 35.56 0 0 1 492 173l9.75 109.51c0 0.15 0 0.3 0 0.45V476.5c0 1-0.14 10.09-6.51 16.5C491.43 496.84 486.34 498.79 480.12 498.79ZM467.17 283.17V476.5c0 2.07 0.58 12.29 11.55 12.29h1.4c11 0 11.62-10.24 11.64-12.3V283.17l-9.93-111.52a5 5 0 0 1 1.61-4.14 25.82 25.82 0 0 0 7.25-17.41 19.4 19.4 0 0 0-3.89-12.27c-1.95-2.4-4.46-3.83-6.71-3.83h-1.37c-4.45 0-10.62 5.6-10.62 16.1a25.89 25.89 0 0 0 7.3 17.46 5 5 0 0 1 1.61 4.13Z" fill="#535353" data-fill-palette-color="accent"></path><path d="M417.12 498.79h-1.4c-6.22 0-11.31-2-15.12-5.8-6.35-6.42-6.44-15.53-6.43-16.55V283c0-0.15 0-0.3 0-0.44L403.85 173a35.66 35.66 0 0 1-8.75-22.94c0-16.12 10.71-26.1 20.62-26.1h1.37c5.31 0 10.58 2.74 14.47 7.52a29.4 29.4 0 0 1 6.13 18.58A35.56 35.56 0 0 1 429 173l9.75 109.51c0 0.15 0 0.3 0 0.45V476.5c0 1-0.14 10.09-6.51 16.5C428.43 496.84 423.34 498.79 417.12 498.79ZM404.17 283.17V476.5c0 2.07 0.58 12.29 11.55 12.29h1.4c11 0 11.62-10.24 11.64-12.3V283.17l-9.93-111.52a5 5 0 0 1 1.61-4.14 25.82 25.82 0 0 0 7.25-17.41 19.4 19.4 0 0 0-3.89-12.27c-1.95-2.4-4.46-3.83-6.71-3.83h-1.37c-4.45 0-10.62 5.6-10.62 16.1a25.89 25.89 0 0 0 7.3 17.46 5 5 0 0 1 1.61 4.13Z" fill="#535353" data-fill-palette-color="accent"></path><path d="M189.22 119.72a5.2 5.2 0 0 1-1.34-0.18 5 5 0 0 1-3.49-6.15l0.24-0.87a5 5 0 1 1 9.64 2.65L194 116A5 5 0 0 1 189.22 119.72Z" fill="#535353" data-fill-palette-color="accent"></path><path d="M184.81 138a5.07 5.07 0 0 1-1.33-0.18 5 5 0 0 1-3.49-6.15l0.24-0.87a5 5 0 0 1 9.64 2.66l-0.24 0.87A5 5 0 0 1 184.81 138Z" fill="#535353" data-fill-palette-color="accent"></path><path d="M180.41 156.37a4.72 4.72 0 0 1-1.34-0.19 5 5 0 0 1-3.49-6.15l0.25-0.87a5 5 0 0 1 9.63 2.67l-0.24 0.87A5 5 0 0 1 180.41 156.37Z" fill="#535353" data-fill-palette-color="accent"></path><path d="M175.36 174.5a4.8 4.8 0 0 1-1.34-0.18 5 5 0 0 1-3.48-6.15l0.24-0.87a5 5 0 0 1 9.64 2.67l-0.25 0.87A5 5 0 0 1 175.36 174.5Z" fill="#535353" data-fill-palette-color="accent"></path><path d="M171 192.83a5.13 5.13 0 0 1-1.33-0.18 5 5 0 0 1-3.49-6.15l0.24-0.87a5 5 0 1 1 9.64 2.66l-0.24 0.87A5 5 0 0 1 171 192.83Z" fill="#535353" data-fill-palette-color="accent"></path><path d="M166.55 211.16a5.07 5.07 0 0 1-1.33-0.18 5 5 0 0 1-3.49-6.15L162 204a5 5 0 1 1 9.64 2.65l-0.24 0.87A5 5 0 0 1 166.55 211.16Z" fill="#535353" data-fill-palette-color="accent"></path><path d="M77.88 53a4.9 4.9 0 0 1-1.64-0.27 5 5 0 0 1-3.08-6.37l0.44-1.27A5 5 0 0 1 83 48.33L82.6 49.6A5 5 0 0 1 77.88 53Z" fill="#535353" data-fill-palette-color="accent"></path><path d="M69.21 79.72a5 5 0 0 1-1.64-0.27 5 5 0 0 1-3.08-6.37l0.44-1.27a5 5 0 1 1 9.44 3.28l-0.44 1.27A5 5 0 0 1 69.21 79.72Z" fill="#535353" data-fill-palette-color="accent"></path><path d="M60.54 106.48a5 5 0 0 1-1.64-0.27 5 5 0 0 1-3.08-6.37l0.44-1.27a5 5 0 0 1 9.45 3.28l-0.45 1.27A5 5 0 0 1 60.54 106.48Z" fill="#535353" data-fill-palette-color="accent"></path><path d="M51.29 133a4.9 4.9 0 0 1-1.64-0.27 5 5 0 0 1-3.09-6.37l0.45-1.27a5 5 0 1 1 9.44 3.28L56 129.66A5 5 0 0 1 51.29 133Z" fill="#535353" data-fill-palette-color="accent"></path><path d="M170 114a5.05 5.05 0 0 1-1.32-0.18l-11-3a5 5 0 0 1 2.64-9.64l11 3A5 5 0 0 1 170 114Z" fill="#535353" data-fill-palette-color="accent"></path><path d="M59 46a4.62 4.62 0 0 1-1.27-0.17l-19-5a5 5 0 0 1 2.54-9.66l19 5A5 5 0 0 1 59 46Z" fill="#535353" data-fill-palette-color="accent"></path><path d="M37 46a5.05 5.05 0 0 1-1.32-0.18 5 5 0 0 1-3.5-6.14l3-11a5 5 0 0 1 9.64 2.64l-3 11A5 5 0 0 1 37 46Z" fill="#535353" data-fill-palette-color="accent"></path><path d="M49 74a4.62 4.62 0 0 1-1.27-0.17l-19-5a5 5 0 1 1 2.54-9.66l19 5A5 5 0 0 1 49 74Z" fill="#535353" data-fill-palette-color="accent"></path><path d="M27 74a5.05 5.05 0 0 1-1.32-0.18 5 5 0 0 1-3.5-6.14l3-11a5 5 0 1 1 9.64 2.64l-3 11A5 5 0 0 1 27 74Z" fill="#535353" data-fill-palette-color="accent"></path><path d="M41 100a4.62 4.62 0 0 1-1.27-0.17l-19-5a5 5 0 1 1 2.54-9.66l19 5A5 5 0 0 1 41 100Z" fill="#535353" data-fill-palette-color="accent"></path><path d="M19 100a5.05 5.05 0 0 1-1.32-0.18 5 5 0 0 1-3.5-6.14l3-11a5 5 0 1 1 9.64 2.64l-3 11A5 5 0 0 1 19 100Z" fill="#535353" data-fill-palette-color="accent"></path><path d="M32 128a4.62 4.62 0 0 1-1.27-0.17l-19-5a5 5 0 1 1 2.54-9.66l19 5A5 5 0 0 1 32 128Z" fill="#535353" data-fill-palette-color="accent"></path><path d="M10 128a5.05 5.05 0 0 1-1.32-0.18 5 5 0 0 1-3.5-6.14l3-11a5 5 0 1 1 9.64 2.64l-3 11A5 5 0 0 1 10 128Z" fill="#535353" data-fill-palette-color="accent"></path><path d="M165 132a5.05 5.05 0 0 1-1.32-0.18l-11-3a5 5 0 0 1 2.64-9.64l11 3A5 5 0 0 1 165 132Z" fill="#535353" data-fill-palette-color="accent"></path><path d="M160 150a5.05 5.05 0 0 1-1.32-0.18l-11-3a5 5 0 0 1 2.64-9.64l11 3A5 5 0 0 1 160 150Z" fill="#535353" data-fill-palette-color="accent"></path><path d="M155 168a5.05 5.05 0 0 1-1.32-0.18l-11-3a5 5 0 0 1 2.64-9.64l11 3A5 5 0 0 1 155 168Z" fill="#535353" data-fill-palette-color="accent"></path><path d="M150 187a5.05 5.05 0 0 1-1.32-0.18l-11-3a5 5 0 0 1 2.64-9.64l11 3A5 5 0 0 1 150 187Z" fill="#535353" data-fill-palette-color="accent"></path><path d="M145 205a5.05 5.05 0 0 1-1.32-0.18l-11-3a5 5 0 0 1 2.64-9.64l11 3A5 5 0 0 1 145 205Z" fill="#535353" data-fill-palette-color="accent"></path><path d="M272.19 117.31a5 5 0 0 1-4-2A64.79 64.79 0 0 1 255 75.86a65.4 65.4 0 1 1 130.79 0A62.79 62.79 0 0 1 373 114.69a5 5 0 0 1-8-6 53 53 0 0 0 10.74-32.79 55.4 55.4 0 1 0-110.79 0 54.89 54.89 0 0 0 11.22 33.43 5 5 0 0 1-4 8Z" fill="#535353" data-fill-palette-color="accent"></path><path d="M337.58 305.66H303.94c-9.8 0-13.48-7.34-13.61-12.45L274 133.51a5 5 0 0 1 9.95-1L300.3 292.4a2.57 2.57 0 0 1 0 0.47c0.17 2.79 2.76 2.79 3.62 2.79h33.64c2.7 0 4.2-1 4.46-3.1a1.06 1.06 0 0 1 0-0.15L358.13 132.5a5 5 0 0 1 9.95 1L352 293.33C351.65 298.33 347.54 305.66 337.58 305.66Z" fill="#535353" data-fill-palette-color="accent"></path><path d="M321.93 265.43a5 5 0 0 1-5-5v-0.6a5 5 0 0 1 10 0v0.6A5 5 0 0 1 321.93 265.43Z" fill="#535353" data-fill-palette-color="accent"></path><path d="M366.52 138H275.71c-5.82 0-10.38-5.48-10.38-12.47v-6.07c0-7.17 4.56-12.79 10.38-12.79h90.81c5.77 0 10.11 5.5 10.11 12.79v6.07C376.63 132.64 372.29 138 366.52 138ZM276 128h90.08a4.79 4.79 0 0 0 0.54-2.47v-6.07a5.48 5.48 0 0 0-0.64-2.79H276.12a4.56 4.56 0 0 0-0.79 2.79v6.07A3.9 3.9 0 0 0 276 128Z" fill="#535353" data-fill-palette-color="accent"></path><path d="M353 499a4.94 4.94 0 0 1-2.77-0.84 5 5 0 0 1-1.39-6.93c4.69-7 8.31-18.41 5.84-28a17 17 0 0 0-8.93-11.33c-8-4.13-18-1.54-27.58 1-2 0.51-4 1-6 1.5-13.37 3.12-28.52 6.65-43.93 5.11-10.1-1-19.47-4.71-26.39-10.42-8.32-6.86-12.47-16-12-26.43 0.4-9.3 4.28-16.88 11.19-21.93 13.6-9.92 36.44-8.53 51.87-4.33 3.95 1.08 8.07 2.5 12.42 4 16 5.53 32.61 11.26 44.62 1.78 8.09-6.39 9.75-16.88 4-25.52-3.62-5.46-8.51-10-13.68-14.72C335 357 329.4 351.92 325.14 345.48c-9.45-14.26-10.32-32.26-9.4-44.85a5 5 0 0 1 10 0.74c-0.82 11-0.13 26.68 7.75 38.59 3.6 5.42 8.47 9.91 13.62 14.65 5.39 5 11 10.09 15.24 16.56a28.57 28.57 0 0 1-6.17 38.89c-16.31 12.87-37.26 5.63-54.08-0.18-4.2-1.45-8.16-2.82-11.79-3.81-13.88-3.78-33.35-4.53-43.34 2.76-4.5 3.28-6.82 8-7.1 14.28-0.7 16.09 14.76 25 29.41 26.47 13.76 1.38 28.06-1.95 40.66-4.9 1.85-0.43 3.73-0.92 5.72-1.44 10.91-2.85 23.27-6.07 34.69-0.19a27 27 0 0 1 14 17.71c2.85 11 0 25.17-7.2 36A5 5 0 0 1 353 499Z" fill="#535353" data-fill-palette-color="accent"></path><path d="M322 192a20 20 0 1 1 20-20A20 20 0 0 1 322 192Zm0-30a10 10 0 1 0 10 10A10 10 0 0 0 322 162Z" fill="#535353" data-fill-palette-color="accent"></path><path d="M361.88 68.78H361a5 5 0 0 1 0-10h0.89a5 5 0 0 1 0 10Z" fill="#535353" data-fill-palette-color="accent"></path><path d="M361.88 98.89H361a5 5 0 0 1 0-10h0.89a5 5 0 0 1 0 10Z" fill="#535353" data-fill-palette-color="accent"></path><path d="M334.5 38.67h-0.89a5 5 0 0 1 0-10h0.89a5 5 0 0 1 0 10Z" fill="#535353" data-fill-palette-color="accent"></path><path d="M334.5 68.78h-0.89a5 5 0 0 1 0-10h0.89a5 5 0 0 1 0 10Z" fill="#535353" data-fill-palette-color="accent"></path><path d="M334.5 98.89h-0.89a5 5 0 0 1 0-10h0.89a5 5 0 0 1 0 10Z" fill="#535353" data-fill-palette-color="accent"></path><path d="M307.12 38.67h-0.89a5 5 0 0 1 0-10h0.89a5 5 0 0 1 0 10Z" fill="#535353" data-fill-palette-color="accent"></path><path d="M307.12 68.78h-0.89a5 5 0 0 1 0-10h0.89a5 5 0 0 1 0 10Z" fill="#535353" data-fill-palette-color="accent"></path><path d="M307.12 98.89h-0.89a5 5 0 0 1 0-10h0.89a5 5 0 0 1 0 10Z" fill="#535353" data-fill-palette-color="accent"></path><path d="M279.74 68.78h-0.89a5 5 0 0 1 0-10h0.89a5 5 0 0 1 0 10Z" fill="#535353" data-fill-palette-color="accent"></path><path d="M279.74 98.89h-0.89a5 5 0 0 1 0-10h0.89a5 5 0 0 1 0 10Z" fill="#535353" data-fill-palette-color="accent"></path><path d="M212.45 287.6H169.69a5 5 0 0 1 0-10h42.76a5 5 0 0 1 0 10Z" fill="#535353" data-fill-palette-color="accent"></path><path d="M212.45 322.36H169.69a5 5 0 0 1 0-10h42.76a5 5 0 0 1 0 10Z" fill="#535353" data-fill-palette-color="accent"></path><path d="M212.45 357.12H169.69a5 5 0 1 1 0-10h42.76a5 5 0 0 1 0 10Z" fill="#535353" data-fill-palette-color="accent"></path><path d="M212.45 392.66H169.69a5 5 0 0 1 0-10h42.76a5 5 0 0 1 0 10Z" fill="#535353" data-fill-palette-color="accent"></path><path d="M212.45 427.42H169.69a5 5 0 0 1 0-10h42.76a5 5 0 0 1 0 10Z" fill="#535353" data-fill-palette-color="accent"></path><path d="M212.45 462H169.69a5 5 0 0 1 0-10h42.76a5 5 0 1 1 0 10Z" fill="#535353" data-fill-palette-color="accent"></path><path d="M87.45 226.6H44.69a5 5 0 1 1 0-10H87.45a5 5 0 1 1 0 10Z" fill="#535353" data-fill-palette-color="accent"></path><path d="M87.45 264.85H44.69a5 5 0 1 1 0-10H87.45a5 5 0 0 1 0 10Z" fill="#535353" data-fill-palette-color="accent"></path><path d="M87.45 303.1H44.69a5 5 0 0 1 0-10H87.45a5 5 0 0 1 0 10Z" fill="#535353" data-fill-palette-color="accent"></path><path d="M87.45 342.19H44.69a5 5 0 0 1 0-10H87.45a5 5 0 0 1 0 10Z" fill="#535353" data-fill-palette-color="accent"></path><path d="M87.45 380.44H44.69a5 5 0 0 1 0-10H87.45a5 5 0 0 1 0 10Z" fill="#535353" data-fill-palette-color="accent"></path><path d="M87.45 418.49H44.69a5 5 0 0 1 0-10H87.45a5 5 0 0 1 0 10Z" fill="#535353" data-fill-palette-color="accent"></path><path d="M87.45 457H44.69a5 5 0 0 1 0-10H87.45a5 5 0 1 1 0 10Z" fill="#535353" data-fill-palette-color="accent"></path></g></svg></g></svg></g></svg></g><defs></defs></svg><rect width="395.52" height="164.8571242282524" fill="none" stroke="none" visibility="hidden"></rect></g></svg></g></svg>